# xmcd
#
# Track frame offsets: 
#        150
#        15008
#        29250
#        50896
#        62765
#        76599
#        90412
#        105405
#        120531
#        132041
#        144779
#        158282
#        171371
#        186552
#        200332
#        212619
#        226877
#        242120
#        254423
#        270308
#
# Disc length: 3771 seconds
#
# Revision: 2
# Processed by: cddbd v1.5.2PL0 Copyright (c) Steve Scherf et al.
# Submitted via: ExactAudioCopy v1.0b1
#
DISCID=f60eb914
DTITLE=龚秋霞 - 上海老歌 (1931-1949)
DYEAR=2009
DGENRE=Pop
TTITLE0=蔷薇处处开
TTITLE1=是梦是真
TTITLE2=秋水伊人／思母
TTITLE3=欢迎新年
TTITLE4=梦中人
TTITLE5=春
TTITLE6=莫忘今宵
TTITLE7=春恋 
TTITLE8=女工歌
TTITLE9=春风野草
TTITLE10=丁香树下
TTITLE11=落难的人
TTITLE12=白兰花
TTITLE13=溜冰曲
TTITLE14=我在呼唤你
TTITLE15=初阳
TTITLE16=摇妈妈
TTITLE17=船歌
TTITLE18=四季花开
TTITLE19=宵之咏
EXTD=YEAR: 2009
EXTT0=
EXTT1=
EXTT2=
EXTT3=
EXTT4=
EXTT5=
EXTT6=
EXTT7=
EXTT8=
EXTT9=
EXTT10=
EXTT11=
EXTT12=
EXTT13=
EXTT14=
EXTT15=
EXTT16=
EXTT17=
EXTT18=
EXTT19=
PLAYORDER=
